<svg xmlns="http://www.w3.org/2000/svg" width="805" height="600"><rect width="805" height="600" x="0" y="0" fill="#FFFFFF" id="background"/><g transform="translate(402.5,300)" id="viz"><g id="links"><path d="M0,0C-30.74392695968412,36.208575712082464,36.001038209826106,30.98669469005433,72.00207641965221,61.97338938010866" fill="none" stroke="#ccc"/><path d="M0,0C-30.74392695968412,36.208575712082464,-36.414476177718186,-30.49976925654348,-72.82895235543637,-60.99953851308696" fill="none" stroke="#ccc"/><path d="M72.00207641965221,61.97338938010866C108.00311462947832,92.96008407016298,13.127989058870826,-141.8939953037836,17.503985411827767,-189.19199373837816" fill="none" stroke="#ccc"/><path d="M72.00207641965221,61.97338938010866C108.00311462947832,92.96008407016298,40.73735031052048,-136.55298711371324,54.316467080693975,-182.070649484951" fill="none" stroke="#ccc"/><path d="M72.00207641965221,61.97338938010866C108.00311462947832,92.96008407016298,64.28496329155352,-127.17583691332099,85.71328438873803,-169.56778255109467" fill="none" stroke="#ccc"/><path d="M72.00207641965221,61.97338938010866C108.00311462947832,92.96008407016298,85.11559717650901,-114.28729202009404,113.48746290201201,-152.38305602679205" fill="none" stroke="#ccc"/><path d="M72.00207641965221,61.97338938010866C108.00311462947832,92.96008407016298,103.1324595820905,-98.33588246692288,137.509946109454,-131.11450995589718" fill="none" stroke="#ccc"/><path d="M72.00207641965221,61.97338938010866C108.00311462947832,92.96008407016298,118.15144645220904,-79.66483352929811,157.53526193627872,-106.21977803906415" fill="none" stroke="#ccc"/><path d="M72.00207641965221,61.97338938010866C108.00311462947832,92.96008407016298,129.74230830250977,-58.933720706710034,172.98974440334638,-78.57829427561337" fill="none" stroke="#ccc"/><path d="M72.00207641965221,61.97338938010866C108.00311462947832,92.96008407016298,137.7006695146966,-36.67118235350891,183.60089268626217,-48.89490980467855" fill="none" stroke="#ccc"/><path d="M72.00207641965221,61.97338938010866C108.00311462947832,92.96008407016298,141.8573948181198,-13.517748903426254,189.1431930908264,-18.02366520456834" fill="none" stroke="#ccc"/><path d="M72.00207641965221,61.97338938010866C108.00311462947832,92.96008407016298,142.15671340254116,9.885283738354612,189.54228453672152,13.18037831780615" fill="none" stroke="#ccc"/><path d="M72.00207641965221,61.97338938010866C108.00311462947832,92.96008407016298,138.65159967224702,32.89352380525618,184.868799562996,43.85803174034157" fill="none" stroke="#ccc"/><path d="M72.00207641965221,61.97338938010866C108.00311462947832,92.96008407016298,131.49877894542317,54.902833586826176,175.33170526056423,73.20377811576823" fill="none" stroke="#ccc"/><path d="M72.00207641965221,61.97338938010866C108.00311462947832,92.96008407016298,120.95680187057667,75.33725559935176,161.27573582743557,100.44967413246901" fill="none" stroke="#ccc"/><path d="M72.00207641965221,61.97338938010866C108.00311462947832,92.96008407016298,107.36390651768244,93.69760710531698,143.15187535690993,124.93014280708931" fill="none" stroke="#ccc"/><path d="M72.00207641965221,61.97338938010866C108.00311462947832,92.96008407016298,91.14812946231078,109.53660801541115,121.53083928308104,146.04881068721488" fill="none" stroke="#ccc"/><path d="M72.00207641965221,61.97338938010866C108.00311462947832,92.96008407016298,72.77845422036151,122.51345477658667,97.03793896048201,163.35127303544888" fill="none" stroke="#ccc"/><path d="M72.00207641965221,61.97338938010866C108.00311462947832,92.96008407016298,52.59581452219705,132.43840188837467,70.12775269626273,176.58453585116624" fill="none" stroke="#ccc"/><path d="M72.00207641965221,61.97338938010866C108.00311462947832,92.96008407016298,31.102974665264213,139.06421166846607,41.47063288701895,185.4189488912881" fill="none" stroke="#ccc"/><path d="M72.00207641965221,61.97338938010866C108.00311462947832,92.96008407016298,9.065953781915857,142.21131629383143,12.08793837588781,189.61508839177523" fill="none" stroke="#ccc"/><path d="M72.00207641965221,61.97338938010866C108.00311462947832,92.96008407016298,-12.962206092131154,141.90923582778225,-17.28294145617487,189.212314437043" fill="none" stroke="#ccc"/><path d="M72.00207641965221,61.97338938010866C108.00311462947832,92.96008407016298,-34.68056176882734,138.2154428253173,-46.24074902510312,184.28725710042306" fill="none" stroke="#ccc"/><path d="M72.00207641965221,61.97338938010866C108.00311462947832,92.96008407016298,-55.5700320284811,131.21822106839272,-74.0933760379748,174.9576280911903" fill="none" stroke="#ccc"/><path d="M72.00207641965221,61.97338938010866C108.00311462947832,92.96008407016298,-75.13134649065921,121.08480819037749,-100.17512865421229,161.44641092050333" fill="none" stroke="#ccc"/><path d="M72.00207641965221,61.97338938010866C108.00311462947832,92.96008407016298,-92.8969784640709,108.05739860021593,-123.86263795209453,144.07653146695458" fill="none" stroke="#ccc"/><path d="M72.00207641965221,61.97338938010866C108.00311462947832,92.96008407016298,-108.44231910398464,92.4473548964467,-144.58975880531287,123.26313986192892" fill="none" stroke="#ccc"/><path d="M72.00207641965221,61.97338938010866C108.00311462947832,92.96008407016298,-121.39582580837258,74.62776612162033,-161.8611010778301,99.50368816216043" fill="none" stroke="#ccc"/><path d="M72.00207641965221,61.97338938010866C108.00311462947832,92.96008407016298,-131.44790230026555,55.02453071912417,-175.26386973368741,73.36604095883223" fill="none" stroke="#ccc"/><path d="M72.00207641965221,61.97338938010866C108.00311462947832,92.96008407016298,-138.35829815723193,34.10617731488697,-184.47773087630924,45.47490308651596" fill="none" stroke="#ccc"/><path d="M-72.82895235543637,-60.99953851308696C-109.24342853315456,-91.49930776963045,-141.99672595977822,11.96577689511392,-189.32896794637097,15.954369193485228" fill="none" stroke="#ccc"/><path d="M-72.82895235543637,-60.99953851308696C-109.24342853315456,-91.49930776963045,-142.08415785649473,-10.878514889941924,-189.44554380865964,-14.504686519922565" fill="none" stroke="#ccc"/><path d="M-72.82895235543637,-60.99953851308696C-109.24342853315456,-91.49930776963045,-138.56154128855698,-33.27084723507231,-184.74872171807598,-44.36112964676308" fill="none" stroke="#ccc"/><path d="M-72.82895235543637,-60.99953851308696C-109.24342853315456,-91.49930776963045,-131.60090131918278,-54.65759573909848,-175.46786842557705,-72.87679431879798" fill="none" stroke="#ccc"/><path d="M-72.82895235543637,-60.99953851308696C-109.24342853315456,-91.49930776963045,-121.48293018714733,-74.4858890874284,-161.97724024952976,-99.31451878323789" fill="none" stroke="#ccc"/><path d="M-72.82895235543637,-60.99953851308696C-109.24342853315456,-91.49930776963045,-108.55025085468704,-92.32059921482592,-144.73366780624937,-123.09413228643456" fill="none" stroke="#ccc"/><path d="M-72.82895235543637,-60.99953851308696C-109.24342853315456,-91.49930776963045,-93.02315795564448,-107.94879380502228,-124.03087727419265,-143.93172507336303" fill="none" stroke="#ccc"/><path d="M-72.82895235543637,-60.99953851308696C-109.24342853315456,-91.49930776963045,-75.2727579605222,-120.99694999881874,-100.36367728069627,-161.32926666509164" fill="none" stroke="#ccc"/><path d="M-72.82895235543637,-60.99953851308696C-109.24342853315456,-91.49930776963045,-55.72329566099071,-131.15320934189074,-74.2977275479876,-174.87094578918766" fill="none" stroke="#ccc"/><path d="M-72.82895235543637,-60.99953851308696C-109.24342853315456,-91.49930776963045,-34.84201447482136,-138.17483138160995,-46.45601929976181,-184.23310850881325" fill="none" stroke="#ccc"/><path d="M-72.82895235543637,-60.99953851308696C-109.24342853315456,-91.49930776963045,-13.127989058870908,-141.8939953037836,-17.503985411827877,-189.19199373837816" fill="none" stroke="#ccc"/></g><g><circle transform="&#10;&#9;        rotate(130.33387413702127)&#10;&#9;        translate(0,0)&#10;&#9;      " fill="#1f77b4" r="5"/><circle transform="&#10;&#9;        rotate(40.71912793331481)&#10;&#9;        translate(95,0)&#10;&#9;      " fill="#1f77b4" r="5"/><circle transform="&#10;&#9;        rotate(219.94862034072776)&#10;&#9;        translate(95,0)&#10;&#9;      " fill="#1f77b4" r="5"/><circle transform="&#10;&#9;        rotate(-84.71406008606756)&#10;&#9;        translate(190,0)&#10;&#9;      " fill="#1f77b4" r="10"/><circle transform="&#10;&#9;        rotate(-73.38877305329484)&#10;&#9;        translate(190,0)&#10;&#9;      " fill="#1f77b4" r="5.067117097095318"/><circle transform="&#10;&#9;        rotate(-63.184271608248956)&#10;&#9;        translate(190,0)&#10;&#9;      " fill="#1f77b4" r="4.191368221424546"/><circle transform="&#10;&#9;        rotate(-53.323057804352715)&#10;&#9;        translate(190,0)&#10;&#9;      " fill="#1f77b4" r="3.287979746107146"/><circle transform="&#10;&#9;        rotate(-43.63615437540378)&#10;&#9;        translate(190,0)&#10;&#9;      " fill="#1f77b4" r="3.287979746107146"/><circle transform="&#10;&#9;        rotate(-33.99022546712471)&#10;&#9;        translate(190,0)&#10;&#9;      " fill="#1f77b4" r="3.075623426146228"/><circle transform="&#10;&#9;        rotate(-24.429292909905513)&#10;&#9;        translate(190,0)&#10;&#9;      " fill="#1f77b4" r="2.8474739872574966"/><circle transform="&#10;&#9;        rotate(-14.912382183076332)&#10;&#9;        translate(190,0)&#10;&#9;      " fill="#1f77b4" r="2.8474739872574966"/><circle transform="&#10;&#9;        rotate(-5.443342350356005)&#10;&#9;        translate(190,0)&#10;&#9;      " fill="#1f77b4" r="2.5993762245501815"/><circle transform="&#10;&#9;        rotate(3.977826588255411)&#10;&#9;        translate(190,0)&#10;&#9;      " fill="#1f77b4" r="2.5993762245501815"/><circle transform="&#10;&#9;        rotate(13.346045045746138)&#10;&#9;        translate(190,0)&#10;&#9;      " fill="#1f77b4" r="2.324952774876386"/><circle transform="&#10;&#9;        rotate(22.661313022116133)&#10;&#9;        translate(190,0)&#10;&#9;      " fill="#1f77b4" r="2.324952774876386"/><circle transform="&#10;&#9;        rotate(31.916479502275592)&#10;&#9;        translate(190,0)&#10;&#9;      " fill="#1f77b4" r="2.013468165642073"/><circle transform="&#10;&#9;        rotate(41.11154448622446)&#10;&#9;        translate(190,0)&#10;&#9;      " fill="#1f77b4" r="2.013468165642073"/><circle transform="&#10;&#9;        rotate(50.23531799205995)&#10;&#9;        translate(190,0)&#10;&#9;      " fill="#1f77b4" r="1.643989873053573"/><circle transform="&#10;&#9;        rotate(59.287800019782054)&#10;&#9;        translate(190,0)&#10;&#9;      " fill="#1f77b4" r="1.643989873053573"/><circle transform="&#10;&#9;        rotate(68.34028204750413)&#10;&#9;        translate(190,0)&#10;&#9;      " fill="#1f77b4" r="1.643989873053573"/><circle transform="&#10;&#9;        rotate(77.39276407522624)&#10;&#9;        translate(190,0)&#10;&#9;      " fill="#1f77b4" r="1.643989873053573"/><circle transform="&#10;&#9;        rotate(86.3523372398036)&#10;&#9;        translate(190,0)&#10;&#9;      " fill="#1f77b4" r="1.162476387438193"/><circle transform="&#10;&#9;        rotate(95.21900154123622)&#10;&#9;        translate(190,0)&#10;&#9;      " fill="#1f77b4" r="1.162476387438193"/><circle transform="&#10;&#9;        rotate(104.08566584266885)&#10;&#9;        translate(190,0)&#10;&#9;      " fill="#1f77b4" r="1.162476387438193"/><circle transform="&#10;&#9;        rotate(112.95233014410144)&#10;&#9;        translate(190,0)&#10;&#9;      " fill="#1f77b4" r="1.162476387438193"/><circle transform="&#10;&#9;        rotate(121.81899444553409)&#10;&#9;        translate(190,0)&#10;&#9;      " fill="#1f77b4" r="1.162476387438193"/><circle transform="&#10;&#9;        rotate(130.6856587469667)&#10;&#9;        translate(190,0)&#10;&#9;      " fill="#1f77b4" r="1.162476387438193"/><circle transform="&#10;&#9;        rotate(139.55232304839933)&#10;&#9;        translate(190,0)&#10;&#9;      " fill="#1f77b4" r="1.162476387438193"/><circle transform="&#10;&#9;        rotate(148.41898734983192)&#10;&#9;        translate(190,0)&#10;&#9;      " fill="#1f77b4" r="1.162476387438193"/><circle transform="&#10;&#9;        rotate(157.28565165126457)&#10;&#9;        translate(190,0)&#10;&#9;      " fill="#1f77b4" r="1.162476387438193"/><circle transform="&#10;&#9;        rotate(166.15231595269722)&#10;&#9;        translate(190,0)&#10;&#9;      " fill="#1f77b4" r="1.162476387438193"/><circle transform="&#10;&#9;        rotate(175.18318059538797)&#10;&#9;        translate(190,0)&#10;&#9;      " fill="#1f77b4" r="2.013468165642073"/><circle transform="&#10;&#9;        rotate(184.37824557933686)&#10;&#9;        translate(190,0)&#10;&#9;      " fill="#1f77b4" r="2.013468165642073"/><circle transform="&#10;&#9;        rotate(193.50201908517238)&#10;&#9;        translate(190,0)&#10;&#9;      " fill="#1f77b4" r="1.643989873053573"/><circle transform="&#10;&#9;        rotate(202.55450111289446)&#10;&#9;        translate(190,0)&#10;&#9;      " fill="#1f77b4" r="1.643989873053573"/><circle transform="&#10;&#9;        rotate(211.51407427747182)&#10;&#9;        translate(190,0)&#10;&#9;      " fill="#1f77b4" r="1.162476387438193"/><circle transform="&#10;&#9;        rotate(220.3807385789044)&#10;&#9;        translate(190,0)&#10;&#9;      " fill="#1f77b4" r="1.162476387438193"/><circle transform="&#10;&#9;        rotate(229.247402880337)&#10;&#9;        translate(190,0)&#10;&#9;      " fill="#1f77b4" r="1.162476387438193"/><circle transform="&#10;&#9;        rotate(238.1140671817697)&#10;&#9;        translate(190,0)&#10;&#9;      " fill="#1f77b4" r="1.162476387438193"/><circle transform="&#10;&#9;        rotate(246.9807314832023)&#10;&#9;        translate(190,0)&#10;&#9;      " fill="#1f77b4" r="1.162476387438193"/><circle transform="&#10;&#9;        rotate(255.8473957846349)&#10;&#9;        translate(190,0)&#10;&#9;      " fill="#1f77b4" r="1.162476387438193"/><circle transform="&#10;&#9;        rotate(264.71406008606755)&#10;&#9;        translate(190,0)&#10;&#9;      " fill="#1f77b4" r="1.162476387438193"/></g><g id="labels"><g transform="&#10;&#9;        rotate(130.33387413702127)&#10;&#9;        translate(0,0)&#10;&#9;        rotate(180)&#10;&#9;      "><text x="0" y="0" text-anchor="middle" dominant-baseline="text-before-edge" transform="translate(0,0)"><tspan x="6" y="0" dy="0" text-anchor="start" style="font-family: Arial, sans-serif; font-size: 10px; fill: black; font-weight: normal;"/></text></g><g transform="&#10;&#9;        rotate(40.71912793331481)&#10;&#9;        translate(95,0)&#10;&#9;        rotate(0)&#10;&#9;      "><text x="0" y="0" text-anchor="middle" dominant-baseline="text-before-edge" transform="translate(0,-5.6666669845581055)"><tspan x="-6" y="0" dy="0" text-anchor="end" style="font-family: Arial, sans-serif; font-size: 10px; fill: black; font-weight: normal;">masculin</tspan></text></g><g transform="&#10;&#9;        rotate(219.94862034072776)&#10;&#9;        translate(95,0)&#10;&#9;        rotate(180)&#10;&#9;      "><text x="0" y="0" text-anchor="middle" dominant-baseline="text-before-edge" transform="translate(0,-5.6666669845581055)"><tspan x="6" y="0" dy="0" text-anchor="start" style="font-family: Arial, sans-serif; font-size: 10px; fill: black; font-weight: normal;">féminin</tspan></text></g><g transform="&#10;&#9;        rotate(-84.71406008606756)&#10;&#9;        translate(190,0)&#10;&#9;        rotate(0)&#10;&#9;      "><text x="0" y="0" text-anchor="middle" dominant-baseline="text-before-edge" transform="translate(0,0)"/></g><g transform="&#10;&#9;        rotate(-73.38877305329484)&#10;&#9;        translate(190,0)&#10;&#9;        rotate(0)&#10;&#9;      "><text x="0" y="0" text-anchor="middle" dominant-baseline="text-before-edge" transform="translate(0,0)"/></g><g transform="&#10;&#9;        rotate(-63.184271608248956)&#10;&#9;        translate(190,0)&#10;&#9;        rotate(0)&#10;&#9;      "><text x="0" y="0" text-anchor="middle" dominant-baseline="text-before-edge" transform="translate(0,0)"/></g><g transform="&#10;&#9;        rotate(-53.323057804352715)&#10;&#9;        translate(190,0)&#10;&#9;        rotate(0)&#10;&#9;      "><text x="0" y="0" text-anchor="middle" dominant-baseline="text-before-edge" transform="translate(0,0)"/></g><g transform="&#10;&#9;        rotate(-43.63615437540378)&#10;&#9;        translate(190,0)&#10;&#9;        rotate(0)&#10;&#9;      "><text x="0" y="0" text-anchor="middle" dominant-baseline="text-before-edge" transform="translate(0,0)"/></g><g transform="&#10;&#9;        rotate(-33.99022546712471)&#10;&#9;        translate(190,0)&#10;&#9;        rotate(0)&#10;&#9;      "><text x="0" y="0" text-anchor="middle" dominant-baseline="text-before-edge" transform="translate(0,0)"/></g><g transform="&#10;&#9;        rotate(-24.429292909905513)&#10;&#9;        translate(190,0)&#10;&#9;        rotate(0)&#10;&#9;      "><text x="0" y="0" text-anchor="middle" dominant-baseline="text-before-edge" transform="translate(0,0)"/></g><g transform="&#10;&#9;        rotate(-14.912382183076332)&#10;&#9;        translate(190,0)&#10;&#9;        rotate(0)&#10;&#9;      "><text x="0" y="0" text-anchor="middle" dominant-baseline="text-before-edge" transform="translate(0,0)"/></g><g transform="&#10;&#9;        rotate(-5.443342350356005)&#10;&#9;        translate(190,0)&#10;&#9;        rotate(0)&#10;&#9;      "><text x="0" y="0" text-anchor="middle" dominant-baseline="text-before-edge" transform="translate(0,0)"/></g><g transform="&#10;&#9;        rotate(3.977826588255411)&#10;&#9;        translate(190,0)&#10;&#9;        rotate(0)&#10;&#9;      "><text x="0" y="0" text-anchor="middle" dominant-baseline="text-before-edge" transform="translate(0,0)"/></g><g transform="&#10;&#9;        rotate(13.346045045746138)&#10;&#9;        translate(190,0)&#10;&#9;        rotate(0)&#10;&#9;      "><text x="0" y="0" text-anchor="middle" dominant-baseline="text-before-edge" transform="translate(0,0)"/></g><g transform="&#10;&#9;        rotate(22.661313022116133)&#10;&#9;        translate(190,0)&#10;&#9;        rotate(0)&#10;&#9;      "><text x="0" y="0" text-anchor="middle" dominant-baseline="text-before-edge" transform="translate(0,0)"/></g><g transform="&#10;&#9;        rotate(31.916479502275592)&#10;&#9;        translate(190,0)&#10;&#9;        rotate(0)&#10;&#9;      "><text x="0" y="0" text-anchor="middle" dominant-baseline="text-before-edge" transform="translate(0,0)"/></g><g transform="&#10;&#9;        rotate(41.11154448622446)&#10;&#9;        translate(190,0)&#10;&#9;        rotate(0)&#10;&#9;      "><text x="0" y="0" text-anchor="middle" dominant-baseline="text-before-edge" transform="translate(0,0)"/></g><g transform="&#10;&#9;        rotate(50.23531799205995)&#10;&#9;        translate(190,0)&#10;&#9;        rotate(0)&#10;&#9;      "><text x="0" y="0" text-anchor="middle" dominant-baseline="text-before-edge" transform="translate(0,0)"/></g><g transform="&#10;&#9;        rotate(59.287800019782054)&#10;&#9;        translate(190,0)&#10;&#9;        rotate(0)&#10;&#9;      "><text x="0" y="0" text-anchor="middle" dominant-baseline="text-before-edge" transform="translate(0,0)"/></g><g transform="&#10;&#9;        rotate(68.34028204750413)&#10;&#9;        translate(190,0)&#10;&#9;        rotate(0)&#10;&#9;      "><text x="0" y="0" text-anchor="middle" dominant-baseline="text-before-edge" transform="translate(0,0)"/></g><g transform="&#10;&#9;        rotate(77.39276407522624)&#10;&#9;        translate(190,0)&#10;&#9;        rotate(0)&#10;&#9;      "><text x="0" y="0" text-anchor="middle" dominant-baseline="text-before-edge" transform="translate(0,0)"/></g><g transform="&#10;&#9;        rotate(86.3523372398036)&#10;&#9;        translate(190,0)&#10;&#9;        rotate(0)&#10;&#9;      "><text x="0" y="0" text-anchor="middle" dominant-baseline="text-before-edge" transform="translate(0,0)"/></g><g transform="&#10;&#9;        rotate(95.21900154123622)&#10;&#9;        translate(190,0)&#10;&#9;        rotate(180)&#10;&#9;      "><text x="0" y="0" text-anchor="middle" dominant-baseline="text-before-edge" transform="translate(0,0)"/></g><g transform="&#10;&#9;        rotate(104.08566584266885)&#10;&#9;        translate(190,0)&#10;&#9;        rotate(180)&#10;&#9;      "><text x="0" y="0" text-anchor="middle" dominant-baseline="text-before-edge" transform="translate(0,0)"/></g><g transform="&#10;&#9;        rotate(112.95233014410144)&#10;&#9;        translate(190,0)&#10;&#9;        rotate(180)&#10;&#9;      "><text x="0" y="0" text-anchor="middle" dominant-baseline="text-before-edge" transform="translate(0,0)"/></g><g transform="&#10;&#9;        rotate(121.81899444553409)&#10;&#9;        translate(190,0)&#10;&#9;        rotate(180)&#10;&#9;      "><text x="0" y="0" text-anchor="middle" dominant-baseline="text-before-edge" transform="translate(0,0)"/></g><g transform="&#10;&#9;        rotate(130.6856587469667)&#10;&#9;        translate(190,0)&#10;&#9;        rotate(180)&#10;&#9;      "><text x="0" y="0" text-anchor="middle" dominant-baseline="text-before-edge" transform="translate(0,0)"/></g><g transform="&#10;&#9;        rotate(139.55232304839933)&#10;&#9;        translate(190,0)&#10;&#9;        rotate(180)&#10;&#9;      "><text x="0" y="0" text-anchor="middle" dominant-baseline="text-before-edge" transform="translate(0,0)"/></g><g transform="&#10;&#9;        rotate(148.41898734983192)&#10;&#9;        translate(190,0)&#10;&#9;        rotate(180)&#10;&#9;      "><text x="0" y="0" text-anchor="middle" dominant-baseline="text-before-edge" transform="translate(0,0)"/></g><g transform="&#10;&#9;        rotate(157.28565165126457)&#10;&#9;        translate(190,0)&#10;&#9;        rotate(180)&#10;&#9;      "><text x="0" y="0" text-anchor="middle" dominant-baseline="text-before-edge" transform="translate(0,0)"/></g><g transform="&#10;&#9;        rotate(166.15231595269722)&#10;&#9;        translate(190,0)&#10;&#9;        rotate(180)&#10;&#9;      "><text x="0" y="0" text-anchor="middle" dominant-baseline="text-before-edge" transform="translate(0,0)"/></g><g transform="&#10;&#9;        rotate(175.18318059538797)&#10;&#9;        translate(190,0)&#10;&#9;        rotate(180)&#10;&#9;      "><text x="0" y="0" text-anchor="middle" dominant-baseline="text-before-edge" transform="translate(0,0)"/></g><g transform="&#10;&#9;        rotate(184.37824557933686)&#10;&#9;        translate(190,0)&#10;&#9;        rotate(180)&#10;&#9;      "><text x="0" y="0" text-anchor="middle" dominant-baseline="text-before-edge" transform="translate(0,0)"/></g><g transform="&#10;&#9;        rotate(193.50201908517238)&#10;&#9;        translate(190,0)&#10;&#9;        rotate(180)&#10;&#9;      "><text x="0" y="0" text-anchor="middle" dominant-baseline="text-before-edge" transform="translate(0,0)"/></g><g transform="&#10;&#9;        rotate(202.55450111289446)&#10;&#9;        translate(190,0)&#10;&#9;        rotate(180)&#10;&#9;      "><text x="0" y="0" text-anchor="middle" dominant-baseline="text-before-edge" transform="translate(0,0)"/></g><g transform="&#10;&#9;        rotate(211.51407427747182)&#10;&#9;        translate(190,0)&#10;&#9;        rotate(180)&#10;&#9;      "><text x="0" y="0" text-anchor="middle" dominant-baseline="text-before-edge" transform="translate(0,0)"/></g><g transform="&#10;&#9;        rotate(220.3807385789044)&#10;&#9;        translate(190,0)&#10;&#9;        rotate(180)&#10;&#9;      "><text x="0" y="0" text-anchor="middle" dominant-baseline="text-before-edge" transform="translate(0,0)"/></g><g transform="&#10;&#9;        rotate(229.247402880337)&#10;&#9;        translate(190,0)&#10;&#9;        rotate(180)&#10;&#9;      "><text x="0" y="0" text-anchor="middle" dominant-baseline="text-before-edge" transform="translate(0,0)"/></g><g transform="&#10;&#9;        rotate(238.1140671817697)&#10;&#9;        translate(190,0)&#10;&#9;        rotate(180)&#10;&#9;      "><text x="0" y="0" text-anchor="middle" dominant-baseline="text-before-edge" transform="translate(0,0)"/></g><g transform="&#10;&#9;        rotate(246.9807314832023)&#10;&#9;        translate(190,0)&#10;&#9;        rotate(180)&#10;&#9;      "><text x="0" y="0" text-anchor="middle" dominant-baseline="text-before-edge" transform="translate(0,0)"/></g><g transform="&#10;&#9;        rotate(255.8473957846349)&#10;&#9;        translate(190,0)&#10;&#9;        rotate(180)&#10;&#9;      "><text x="0" y="0" text-anchor="middle" dominant-baseline="text-before-edge" transform="translate(0,0)"/></g><g transform="&#10;&#9;        rotate(264.71406008606755)&#10;&#9;        translate(190,0)&#10;&#9;        rotate(180)&#10;&#9;      "><text x="0" y="0" text-anchor="middle" dominant-baseline="text-before-edge" transform="translate(0,0)"/></g></g></g></svg>